<?xml version="1.0" encoding="utf-8"?>
<!-- Generator: Adobe Illustrator 24.3.0, SVG Export Plug-In . SVG Version: 6.00 Build 0)  -->
<svg version="1.1" id="Layer_1" xmlns="http://www.w3.org/2000/svg" xmlns:xlink="http://www.w3.org/1999/xlink" x="0px" y="0px"
	 viewBox="0 0 400 400" style="enable-background:new 0 0 400 400;" xml:space="preserve">
<style type="text/css">
	.st0{fill-rule:evenodd;clip-rule:evenodd;fill:#252525;stroke:#252525;stroke-linejoin:round;}
</style>
<g>
	<path id="STORE" class="st0" d="M168.1,255.2c2.5-0.2,4.7,1.6,4.9,4.1c0.2,2.5-1.6,4.7-4.1,4.9c-0.3,0-0.5,0-0.8,0
		c-2.5,0.2-4.7-1.6-4.9-4.1c-0.2-2.5,1.6-4.7,4.1-4.9C167.6,255.2,167.8,255.2,168.1,255.2z M369.6,119.4c1.1,0.2,2.3-0.3,3-1.2
		c1.2-0.6,1.7-2,1.2-3.3l-9-67.1c-0.5-2-2.2-3.4-4.2-3.7H39.2c-2.2-0.2-4,1.5-4.2,3.6c0,0,0,0,0,0.1l-9,67.1c0,1.2,0.6,2.4,0.6,3.3
		c1,0.8,2.3,1.2,3.6,1.2h11.4v232.4c-0.1,2.2,1.7,4,3.9,4.1c0.1,0,0.2,0,0.3,0h307.6c2.2,0.1,4.1-1.6,4.2-3.8c0-0.1,0-0.2,0-0.3
		V119.4L369.6,119.4L369.6,119.4z M50.6,186.5c0-26.8,21.7-48.6,48.6-48.6c26.8,0,48.6,21.7,48.6,48.6v110.9H50.6V186.5z
		 M157.3,185.7h85.7v161.6h-85.7V185.7z M251.5,186.5c-0.1-27,21.6-49,48.6-49.1c27-0.1,49,21.6,49.1,48.6c0,0.2,0,0.3,0,0.5v110.9
		h-97.7V186.5z M349.2,347.7h-97.7v-42.6h97.7V347.7z M50.6,347.7v-42.6h97.7v42.6H50.6z M50.6,119.4h298.6v36.8
		c-16.8-26.9-52.3-35.1-79.2-18.2c-14.1,8.9-23.7,23.4-26.3,39.9h-87.5c-4.5-28-28.6-48.7-57-48.7c-19.8,0-38.2,10.2-48.6,27
		L50.6,119.4L50.6,119.4z M364.2,111.2H35l8.4-58.9H357L364.2,111.2z M322.8,250.7c1.7-1.6,4.3-1.6,6,0c1.6,1.3,1.8,3.7,0.5,5.2
		c-0.1,0.2-0.3,0.3-0.5,0.5l-16.2,15.1c-1.7,1.6-4.3,1.6-6,0c-1.6-1.3-1.8-3.7-0.5-5.2c0.2-0.2,0.3-0.3,0.5-0.5L322.8,250.7z
		 M319.2,232.7c1.5-1.9,4.3-2.2,6.1-0.7c1.9,1.5,2.2,4.3,0.7,6.1c-0.1,0.1-0.1,0.2-0.2,0.2l-33.6,30.7c-0.8,0.8-1.9,1.3-3,1.2
		c-1.1,0-2.2-0.5-3-1.2c-1.6-1.3-1.8-3.7-0.5-5.2c0.1-0.2,0.3-0.3,0.5-0.5L319.2,232.7z"/>
</g>
</svg>
