<?xml version="1.0" encoding="utf-8"?>
<!-- Generator: Adobe Illustrator 24.3.0, SVG Export Plug-In . SVG Version: 6.00 Build 0)  -->
<svg version="1.1" id="Calque_1" xmlns="http://www.w3.org/2000/svg" xmlns:xlink="http://www.w3.org/1999/xlink" x="0px" y="0px"
	 viewBox="0 0 400 400" style="enable-background:new 0 0 400 400;" xml:space="preserve">
<style type="text/css">
	.st0{fill:#252525;}
</style>
<g>
	<path class="st0" d="M352.8,106.5v-0.4c0-0.4-0.4-0.9-0.4-1.7c0,0,0,0,0-0.4l0,0c-0.4-0.4-0.9-0.9-1.3-1.3c0,0-0.4,0-0.4-0.4
		l-0.4-0.4L272.3,60c-0.9-0.9-1.7-1.3-2.6-1.3l-67-36.1c-1.7-0.9-3.5-0.9-5.2,0L49.8,102.2l-0.4,0.4c0,0-0.4,0-0.4,0.4
		c-0.4,0.4-0.9,0.9-1.3,1.3l0,0c0,0,0,0,0,0.4c-0.4,0-0.9,0.4-0.9,1.3v0.4c0,0,0,0,0,0.4v186.7c0,2.2,1.3,3.9,3,4.8l147.5,79.2
		c0,0,0,0,0.4,0h0.4c0.4,0.4,1.3,0.4,1.7,0.4c0.4,0,1.3,0,1.7-0.4h0.4c0,0,0,0,0.4,0l147.5-79.2c1.7-0.9,3-2.6,3-4.8L352.8,106.5
		L352.8,106.5z M200,179.7l-67.9-36.6L268.3,70l67.9,36.6L200,179.7z M200,33.8l57,30.5l-136.7,73.1l-57-30.5L200,33.8z M57.7,115.7
		l136.7,73.6v174.1L57.7,290.2V115.7z M205.2,363.3V189.2l136.7-73.6v174.1L205.2,363.3z"/>
	<path class="st0" d="M123.4,176.6L79,152.7c-1.7-0.9-3.9-0.9-5.2,0c-1.7,0.9-2.6,2.6-2.6,4.8v32.2c0,2.2,1.3,3.9,3,4.8l44.4,23.9
		c0.9,0.4,1.7,0.9,2.6,0.9s1.7-0.4,2.6-0.9c1.7-0.9,2.6-2.6,2.6-4.8v-32.2C126.4,179.2,125.1,177.5,123.4,176.6z M115.6,204.5
		L82,186.6V167l33.5,17.8V204.5z"/>
	<path class="st0" d="M106.9,258.4L79,244.5c-2.6-1.3-6.1-0.4-7.4,2.2c-1.3,2.6-0.4,6.1,2.2,7.4l27.9,13.9c0.9,0.4,1.7,0.4,2.6,0.4
		c2.2,0,3.9-0.9,4.8-3C110.3,263.2,109.5,260.2,106.9,258.4z"/>
	<path class="st0" d="M106.9,275.8L79,261.9c-2.6-1.3-6.1-0.4-7.4,2.2s-0.4,6.1,2.2,7.4l27.9,13.9c0.9,0.4,1.7,0.4,2.6,0.4
		c2.2,0,3.9-0.9,4.8-3C110.3,280.6,109.5,277.6,106.9,275.8z"/>
</g>
</svg>
