<svg version="1.0" xmlns="http://www.w3.org/2000/svg" width="370.667" height="393.333" viewBox="0 0 278 295"><path d="M116.5 2.4C64.5 11 22.3 45 7.2 90.6 2.5 104.5 1 114.4 1 130.5c0 40.2 12.3 66.3 43.7 92.7l8.3 6.9.2 31.7c.3 31.6.3 31.7 2.4 32 1.5.2 10.1-5.6 28.5-19.3 26.1-19.4 26.5-19.6 30.4-19 50.4 7.8 101.5-9.8 132-45.5 20.9-24.4 30.7-50.1 30.7-80.5.1-33.9-12-62.6-37.1-87.6C220.5 22.3 197.5 9.9 170 4c-13-2.9-40.9-3.6-53.5-1.6zm-13.3 76c18.2 3.9 31.9 16.5 37.4 34.5.8 2.4 1.1 4.7.8 5.2-.3.5-4.8.9-9.9.9h-9.4l-2.2-5c-9.6-22.2-44.1-22.5-55.4-.5-2.8 5.4-3 6.7-3 15.9 0 9 .3 10.7 2.7 15.1 6.1 11.6 19.9 18.9 32.5 17.1 10.3-1.4 20.4-8.7 23.4-16.9l1.3-3.7H142l-.6 2.7c-1.3 6-7.5 17.5-11.9 22.2-19.5 20.8-53.5 21-74.1.5-9.3-9.2-15.4-23.9-15.4-36.9 0-16.3 9.3-34.2 22.3-42.9C75 78.2 89 75.4 103.2 78.4zm73.6 17.9l.2 18.8 4.1-3.4c11.2-9.6 29.9-6.9 38.4 5.5 4.6 6.6 5.5 13.5 5.5 40.1V180h-19v-23c0-25.2-.5-28.1-5.5-31.4-3.8-2.5-12.2-2.5-16.2-.1-6.4 3.7-6.8 5.6-7.1 31.2l-.3 23.3H158v-50.8c0-28 .3-51.2.7-51.6.4-.4 4.6-.5 9.3-.4l8.5.3.3 18.8z" fill="#252525"></path></svg>