<svg xmlns="http://www.w3.org/2000/svg" viewBox="0 0 44.7 44.7"><path d="M36.4 8.3c.5.5.9 1.3.9 2.1s-.3 1.5-.9 2.1c-.5.5-1.3.9-2.1.9s-1.5-.3-2.1-.9c-.5-.5-.9-1.3-.9-2.1s.3-1.5.9-2.1c.5-.5 1.3-.9 2.1-.9.9.1 1.6.4 2.1.9zm8.3 4v20c0 6.8-5.5 12.3-12.3 12.3h-20C5.5 44.7 0 39.2 0 32.4v-20C0 5.5 5.5 0 12.3 0h20c6.9 0 12.4 5.5 12.4 12.3zm-3.9 0C40.8 7.7 37 4 32.4 4h-20C7.7 4 4 7.7 4 12.3v20c0 4.6 3.8 8.4 8.4 8.4h20c4.6 0 8.4-3.8 8.4-8.4v-20zm-6.9 10.1c0 6.4-5.2 11.5-11.5 11.5-6.4 0-11.5-5.2-11.5-11.5 0-6.4 5.2-11.5 11.5-11.5 6.3-.1 11.5 5.1 11.5 11.5zm-4 0c0-4.2-3.4-7.6-7.6-7.6-4.2 0-7.6 3.4-7.6 7.6 0 4.2 3.4 7.6 7.6 7.6s7.6-3.5 7.6-7.6z" fill="#252525"></path></svg>