<svg xmlns="http://www.w3.org/2000/svg" viewBox="0 0 55.2 44.3"><path d="M42.3 21.6c-1.9-.8-1.9-.7-1.4-2.7 1.1-3.8-.6-6.2-4.5-6.3-2.6-.1-5.1.6-7.5 1.5-.6.2-1.2.6-2 .2.2-1.4.7-2.8.6-4.2-.1-2.1-1.2-3.5-3.3-3.9-1.6-.3-3.1 0-4.5.6C11 10.4 4.8 16.4 1 24.8c-.9 2.1-1.3 4.4-.8 6.7.7 3.6 3 6.2 5.9 8.1 4.2 2.8 8.9 4.1 13.8 4.5 7.4.6 14.4-.6 20.8-4.6 2.6-1.6 4.7-3.6 6.2-6.3 1-1.8 1.6-3.7 1.1-5.8-.7-3.1-2.9-4.7-5.7-5.8zm-6.1 13.6c-3.3 3.5-7.4 5-12 5.7-1.2.1-2.4.2-3.2.3-4.1-.1-7.7-.8-10.9-2.8-5.5-3.5-6.1-9.3-1.3-13.7 4.6-4.3 10.3-5.5 16.5-5.2 3.3.2 6.5 1 9.3 3 2.5 1.7 4.2 4 4.1 7.2-.1 2.1-1.1 4-2.5 5.5zm18.5-16.8c-.5 1.6-1.5 2.3-2.7 2-1.3-.4-1.9-1.4-1.4-3 2.1-7.5-4.5-14.4-11.9-13-1.5.3-2.6-.4-2.8-1.6s.5-2.2 2-2.5c.9-.3 1.8-.3 2.6-.3 9.8 0 16.9 9.2 14.2 18.4zm-10.9-2.6c.4-3.5-.5-4.6-4.2-4.6-1.1 0-1.8-.6-1.9-1.6-.1-1.1.5-1.7 1.6-2 4.3-1 8.5 2.5 8.4 7.1 0 .6 0 1.4-.4 2-.4.9-1.2 1.4-2.2 1.1-.9-.3-1.4-1-1.3-2zm-22.8 8c-2.6.1-5.5 1.3-7.5 4.2-2.6 3.7-1.3 8.4 2.9 10.2 2.6 1.1 5.3 1 7.9-.1 2.4-1 4.2-2.7 5-5.3 1.6-4.7-2.1-9-8.3-9zm-3.1 11.8c-1.4 0-2.6-1-2.7-2.3-.1-1.6 1.6-3.1 3.4-3.1 1.5 0 2.6 1 2.6 2.3.1 1.5-1.5 3-3.3 3.1zm4.6-4.7c-.6 0-1-.3-.9-1s.6-1 1.3-1.1c.6.1 1 .4.9 1-.1.7-.6 1.1-1.3 1.1z" fill="#252525"></path></svg>