<svg xmlns="http://www.w3.org/2000/svg" viewBox="0 0 35.7 44.6"><path d="M35.7 14.7c0 1.9-.2 3.6-.6 5.3-1.7 7.3-6.8 12.3-13.7 12.3-2.9 0-5.6-1.5-6.5-3.2 0 0-1.5 5.9-1.9 7-1.1 4-4.5 8.1-4.8 8.4-.2.2-.6.2-.6-.1-.1-.5-.9-5.6.1-9.7.5-2.1 3.4-14 3.4-14s-.4-.8-.7-2.1c-.1-.6-.2-1.2-.2-1.9 0-3.8 2.3-6.6 5.1-6.6 2.4 0 3.6 1.7 3.6 3.8 0 1.2-.4 2.8-.9 4.4-.5 1.5-1 3.1-1.4 4.7-.7 2.7 1.4 4.9 4.2 4.9 3.9 0 6.8-3.8 7.9-8.9.3-1.5.5-3.1.5-4.7 0-5.6-3.9-9.8-11-9.8-8 0-13 5.8-13 12.3 0 .9.1 1.7.3 2.4.3 1.1.8 1.9 1.4 2.6.5.6.6.8.4 1.4-.1.5-.4 1.6-.5 2.1-.2.5-.8.7-1.4.5-2.6-1-4.2-3.2-4.9-6C.2 18.7 0 17.4 0 16 0 8.7 6.3 0 18.9 0 29 0 35.7 7.1 35.7 14.7z" fill="#252525"></path></svg>