<svg xmlns="http://www.w3.org/2000/svg" viewBox="0 0 40.7 40.7"><path d="M20.4 0C9.2 0 0 9.2 0 20.4s9.2 20.4 20.4 20.4 20.4-9.2 20.4-20.4C40.7 9.2 31.7 0 20.4 0zm9.3 29.4c-.4.6-1.1.8-1.7.4-4.8-3-10.8-3.6-17.9-1.9-.7.2-1.3-.3-1.5-.9-.2-.7.3-1.3.9-1.5 7.7-1.7 14.5-1 19.8 2.2.7.3.8 1.1.4 1.7zm2.5-5.6c-.5.7-1.4 1-2.1.5C24.6 21 16.2 20 9.8 22c-.8.2-1.7-.2-1.9-1-.2-.8.2-1.7 1-1.9 7.4-2.2 16.6-1.1 22.9 2.7.6.3.9 1.3.4 2zm.2-5.7c-6.5-3.9-17.4-4.3-23.6-2.3-1 .3-2-.3-2.3-1.2-.3-1 .3-2 1.2-2.3 7.2-2.1 19.1-1.7 26.7 2.7.9.5 1.2 1.7.7 2.6-.6.7-1.8 1-2.7.5z" fill="#252525"></path></svg>