<svg xmlns="http://www.w3.org/2000/svg" viewBox="0 0 47.7 44.7"><path d="M47.7 34.9c0 .1 0 .2-.1.3-.4 1-2.5 1.8-6.1 2.3-.3.1-.5.6-.7 1.5-.1.4-.2.7-.3 1.1-.1.4-.3.5-.7.5h-.1c-.2 0-.6 0-1-.1-.8-.1-1.6-.3-2.7-.3-.6 0-1.3.1-1.9.2-1.3.2-2.5 1-3.7 1.9-1.7 1.2-3.6 2.5-6.4 2.5h-.6c-2.8 0-4.7-1.3-6.4-2.5-1.2-.8-2.3-1.6-3.7-1.9-.7-.1-1.3-.2-1.9-.2-1.1 0-2 .2-2.7.3-.4.1-.7.1-1 .1-.3 0-.6-.1-.8-.5.1-.4 0-.8-.1-1.1-.2-.9-.3-1.4-.7-1.5C2.5 37 .4 36.1 0 35.2v-.3c0-.3.2-.5.5-.6 2.8-.5 5.3-2 7.5-4.4 1.6-1.9 2.5-3.8 2.5-4 .4-.8.5-1.6.2-2.1-.5-1.1-2-1.6-3-1.9-.2-.1-.5-.2-.7-.2-.9-.4-1.9-1.1-1.7-2.1.1-.7.7-1.3 1.5-1.3.2 0 .4 0 .6.1.9.4 1.7.6 2.4.6.9 0 1.3-.3 1.4-.4 0-.5-.1-.9-.1-1.4-.2-3.2-.5-7.3.6-9.6C14.8.5 21.4 0 23.3 0h1c1.9 0 8.5.5 11.6 7.5 1 2.3.8 6.4.6 9.6v.2c0 .4-.1.9-.1 1.3.1.1.5.4 1.3.4.7 0 1.4-.2 2.3-.6.3-.1.5-.1.7-.1.3 0 .6.1.8.2.7.3.8.8.8 1.3s0 1.2-1.8 2c-.2.1-.4.1-.7.2-1 .3-2.5.8-3 1.9-.3.6-.2 1.3.2 2.1.1.3 3.2 7.3 10 8.4.5-.1.7.2.7.5z" fill="#252525"></path></svg>