<svg xmlns="http://www.w3.org/2000/svg" viewBox="0 0 55.1 44.6"><path d="M21.1 24.9c.8-2.2 2-4 3.6-5.6 1.6-1.6 3.5-2.8 5.5-3.6 2.9-1.2 5.9-1.8 9-1.7h.4v-.2c-.1-.6-.3-1.3-.5-1.9-.8-2.3-2.1-4.2-3.8-5.9C33.8 4.5 32 3.2 30 2.2 27.2.8 24.1.1 21 0c-2-.1-3.9.1-5.8.5-2.4.5-4.5 1.3-6.6 2.4-2 1.2-3.8 2.6-5.3 4.5-2 2.5-3.2 5.3-3.3 8.5-.1 1.2 0 2.4.3 3.5.4 2 1.2 3.8 2.4 5.4 1.2 1.7 2.6 3.1 4.3 4.3.5.3.6.8.5 1.4-.2.8-.4 1.5-.6 2.3-.1.4-.2.9-.3 1.3-.1.2-.1.4 0 .6.1.2.2.3.5.3h.2c.2 0 .4-.1.6-.2l4.2-2.4c.4-.2.9-.3 1.3-.2 1.4.4 2.7.7 4.1.8 1.2.1 2.3.2 3.5.1h.1c0-.1 0-.1-.1-.2-.5-1.7-.7-3.4-.6-5.1.1-1 .3-2 .7-2.9zm5.5-16.3c1.4 0 2.6 1.1 2.7 2.6 0 1.5-1.2 2.6-2.7 2.6-1.5 0-2.7-1.2-2.6-2.7-.1-1.4 1.2-2.5 2.6-2.5zm-13.3 5.3c-1.5 0-2.7-1.2-2.6-2.7 0-1.5 1.2-2.7 2.7-2.6 1.5 0 2.6 1.2 2.6 2.6-.1 1.5-1.3 2.7-2.7 2.7zM55 28.3c-.1-1-.3-2-.6-3-.7-1.9-1.7-3.5-3.1-4.9-1.3-1.4-2.9-2.4-4.6-3.2-2.6-1.2-5.3-1.8-8.2-1.8-1.4 0-2.6.1-4 .4-2 .4-3.9 1.2-5.7 2.2-1.8 1.1-3.3 2.4-4.5 4.1-1.3 1.9-2.1 4-2.3 6.3-.1 1.3 0 2.5.4 3.8.5 1.9 1.4 3.5 2.7 5 1.5 1.7 3.2 3 5.2 4 2.3 1.1 4.7 1.7 7.2 1.8 1.1.1 2.2 0 3.3-.1 1.2-.1 2.3-.3 3.5-.7.4-.1.7-.1 1.1.1 1.1.7 2.3 1.3 3.5 2 .1.1.2.1.3.2.1 0 .3.1.4.1.2 0 .3-.1.4-.3 0-.1.1-.2.1-.3 0-.2 0-.3-.1-.5-.2-1-.5-1.9-.8-2.9-.1-.4 0-.7.3-.9l.1-.1c1.6-1.2 3-2.6 4-4.3 1-2.2 1.6-4.5 1.4-7zM32.9 27c-1.2 0-2.2-1-2.3-2.2 0-1.3 1-2.3 2.2-2.3 1.2 0 2.2 1 2.3 2.2 0 1.3-1 2.3-2.2 2.3zm11 0c-1.2 0-2.2-1-2.2-2.3 0-1.2 1-2.2 2.3-2.2 1.2 0 2.3 1 2.2 2.3-.1 1.2-1.1 2.2-2.3 2.2z" fill="#252525"></path></svg>