<svg xmlns="http://www.w3.org/2000/svg" viewBox="0 0 49.6 41"><path d="M49.6 5.1c-.6.8-2.7 3.7-4.1 4.7-.2.2-.6.3-.6.7 0 8.2-2.1 16.4-8.1 22.4-7.6 7.6-19.1 9.6-29.2 6.8-2-.5-3.8-1.3-5.7-2.3-.6-.3-1.2-.7-1.8-1-.1-.1-.3-.2-.1-.3.1-.1.2-.1.7 0 2.8.3 5.8-.1 8.5-1.1 1.5-.5 4.7-1.6 5.6-3l.1-.1c-.4-.1-.7-.1-1.1-.2-2.8-.8-6.4-2.2-8.2-6.8-.1-.3 0-.4.3-.4 2.3.2 3.1.1 3.9-.1-.4-.1-.9-.2-1.3-.4-3.5-1.3-6-4.7-6.5-8.4-.1-.4-.1-.8-.1-1.2 0-.3.1-.4.4-.2 1.8.9 3.8 1.1 4 1.1-.4-.3-.9-.7-1.3-1.1C2 11.3.8 5.5 3.2 1.9c.2-.3.3-.3.6 0C9.2 8.4 16 11.3 24.2 12.6c.2 0 .2 0 .2-.2-.2-1.4-.2-2.9.1-4.3.4-1.5 1.1-2.9 2-4.1.9-1.1 2.1-2.1 3.4-2.8 1.2-.6 2.5-1 3.9-1.1h.3c1.5-.1 3 .1 4.4.7 1.1.4 2 1 2.9 1.8.3.1.4.2.6.4.1.1.2.2.4.1 2.1-.5 4.1-1.3 6-2.3.1 0 .2-.1.3 0 .1.1.1.2 0 .3-.3 1.1-.9 2.1-1.7 3-.5.6-1.7 2.1-2.5 2.2 1.4-.2 4.2-1.1 5-1.3.1 0 .1.1.1.1z" fill-rule="evenodd" clip-rule="evenodd" fill="#252525"></path></svg>