<svg xmlns="http://www.w3.org/2000/svg" viewBox="0 0 46 44.8"><path d="M45.9 17.3v-.1l-.1-.4v-.4c-.6-3.2-2.1-6.2-4.5-8.8C38.9 5 35.8 3 32.4 1.7 29.4.6 26.2 0 23 0c-4.4 0-8.6 1-12.3 3C3.6 6.7-.6 13.6.1 20.6c.3 3.6 1.7 7 4.1 9.9 2.2 2.7 5.2 4.9 8.6 6.3 2.1.9 4.2 1.3 6.4 1.7l.3.1c.6.1.8.3.8.4.1.1 0 .4 0 .5 0 .1-.1.2-.1.4-.2 1-.5 2-.3 3.1.2 1.3 1 2 2.2 2 1.2 0 2.7-.8 3.6-1.4l.1-.1c2.2-1.3 4.3-2.8 5.9-3.9 3.5-2.5 7.4-5.3 10.4-9 2.9-3.9 4.3-8.7 3.8-13.3zm-31.6 7h-4c-.6 0-1.1-.5-1.1-1.1v-8.3c0-.6.5-1.1 1.1-1.1.6 0 1.1.5 1.1 1.1v7.2h2.9c.6 0 1.1.5 1.1 1.1s-.5 1.1-1.1 1.1zm4.2-1.1c0 .6-.5 1.1-1.1 1.1-.6 0-1.1-.5-1.1-1.1v-8.3c0-.6.5-1.1 1.1-1.1.6 0 1.1.5 1.1 1.1v8.3zm9.8 0c0 .5-.3.9-.8 1-.1 0-.2.1-.3.1-.3 0-.7-.2-.9-.4l-3.9-5.4v4.7c0 .6-.5 1.1-1.1 1.1-.6 0-1.1-.5-1.1-1.1v-8.1c0-.5.3-.9.8-1 .4-.1.9 0 1.2.4l3.9 5.4v-5c0-.6.5-1.1 1.1-1.1.6 0 1.1.5 1.1 1.1v8.3zm7.9.9h-5.4c-.6 0-1.1-.5-1.1-1.1v-8.3c0-.6.5-1.1 1.1-1.1H36c.6 0 1.1.5 1.1 1.1 0 .6-.5 1.1-1.1 1.1h-4.1v2h3.3c.6 0 1.1.5 1.1 1.1 0 .6-.5 1.1-1.1 1.1h-3.3v2h4.3c.6 0 1.1.5 1.1 1.1 0 .5-.5 1-1.1 1zm0 0" fill="#252525"></path></svg>